<svg width="50" height="50" viewBox="0 0 50 50" fill="none" xmlns="http://www.w3.org/2000/svg">
<path d="M25 3C27.6264 3 30.2272 3.51732 32.6537 4.52241C35.0802 5.5275 37.285 7.00069 39.1421 8.85787C40.9993 10.715 42.4725 12.9198 43.4776 15.3463C44.4827 17.7728 45 20.3736 45 23C45 25.6264 44.4827 28.2272 43.4776 30.6537C42.4725 33.0802 40.9993 35.285 39.1421 37.1421C37.285 38.9993 35.0802 40.4725 32.6537 41.4776C30.2272 42.4827 27.6264 43 25 43C22.3736 43 19.7728 42.4827 17.3463 41.4776C14.9198 40.4725 12.715 38.9993 10.8579 37.1421C9.00069 35.285 7.5275 33.0802 6.52241 30.6537C5.51731 28.2272 5 25.6264 5 23C5 20.3736 5.51732 17.7728 6.52241 15.3463C7.52751 12.9198 9.0007 10.715 10.8579 8.85786C12.715 7.00069 14.9198 5.5275 17.3463 4.52241C19.7728 3.51731 22.3736 3 25 3L25 3Z" stroke="#F5F6FA" stroke-width="4" stroke-linecap="round"/>
<path d="M25 3C28.2624 3 31.4754 3.79809 34.3586 5.32469C37.2418 6.85128 39.7078 9.06003 41.5416 11.7583C43.3754 14.4566 44.5212 17.5626 44.8792 20.8053C45.2372 24.0481 44.7965 27.3291 43.5955 30.3625C42.3945 33.3958 40.4697 36.0893 37.989 38.2081C35.5082 40.3269 32.5467 41.8067 29.3629 42.5183C26.179 43.23 22.8694 43.152 19.7225 42.2911C16.5757 41.4303 13.6873 39.8127 11.3091 37.5794" stroke="#5710ED" stroke-width="4" stroke-linecap="round"/>
<g filter="url(#filter0_d)">
<circle cx="25" cy="23" r="18" fill="white"/>
</g>
<path d="M20.7909 28.1392C22.9188 28.1591 24.3307 26.6278 24.3257 24.674C24.3307 22.7251 22.9138 21.3281 21.1489 21.3281C20.075 21.3281 19.1453 21.8452 18.6233 22.7053H18.5487C18.5537 20.3935 19.4287 19.0213 20.9202 19.0213C21.8996 19.0213 22.5161 19.6179 22.7249 20.4631H24.2412C24.0075 18.8523 22.7398 17.679 20.9202 17.679C18.5537 17.679 17.0771 19.7124 17.0771 23.2521C17.0722 27.0007 18.9813 28.1243 20.7909 28.1392ZM20.786 26.8466C19.6027 26.8466 18.7377 25.8523 18.7377 24.7088C18.7426 23.5703 19.6475 22.576 20.8208 22.576C21.9841 22.576 22.8392 23.5156 22.8343 24.6939C22.8392 25.897 21.9493 26.8466 20.786 26.8466ZM26.1366 28H32.8383V26.6825H28.2545V26.608L30.278 24.4901C32.1423 22.6058 32.6743 21.706 32.6743 20.5675C32.6743 18.9318 31.3419 17.679 29.4229 17.679C27.5187 17.679 26.1267 18.9119 26.1267 20.7713H27.5933C27.5883 19.6776 28.2943 18.9616 29.393 18.9616C30.4271 18.9616 31.2126 19.598 31.2126 20.6122C31.2126 21.5121 30.6757 22.1584 29.5819 23.3168L26.1366 26.8864V28Z" fill="#14202F"/>
<defs>
<filter id="filter0_d" x="0" y="0" width="50" height="50" filterUnits="userSpaceOnUse" color-interpolation-filters="sRGB">
<feFlood flood-opacity="0" result="BackgroundImageFix"/>
<feColorMatrix in="SourceAlpha" type="matrix" values="0 0 0 0 0 0 0 0 0 0 0 0 0 0 0 0 0 0 127 0"/>
<feOffset dy="2"/>
<feGaussianBlur stdDeviation="3.5"/>
<feColorMatrix type="matrix" values="0 0 0 0 0 0 0 0 0 0 0 0 0 0 0 0 0 0 0.1 0"/>
<feBlend mode="normal" in2="BackgroundImageFix" result="effect1_dropShadow"/>
<feBlend mode="normal" in="SourceGraphic" in2="effect1_dropShadow" result="shape"/>
</filter>
</defs>
</svg>
