<svg width="96" height="16" viewBox="0 0 96 16" fill="none" xmlns="http://www.w3.org/2000/svg">
<path d="M22.9972 13H24.0866V5.90909H22.9972V13ZM23.5511 4.72727C23.9759 4.72727 24.3267 4.39489 24.3267 3.98864C24.3267 3.58239 23.9759 3.25 23.5511 3.25C23.1264 3.25 22.7756 3.58239 22.7756 3.98864C22.7756 4.39489 23.1264 4.72727 23.5511 4.72727ZM28.7597 13.1477C30.1262 13.1477 30.5878 12.2983 30.8279 11.9105H30.9571V13H32.0097V3.54545H30.9202V7.03551H30.8279C30.5878 6.66619 30.1631 5.81676 28.7781 5.81676C26.9869 5.81676 25.7497 7.23864 25.7497 9.47301C25.7497 11.7259 26.9869 13.1477 28.7597 13.1477ZM28.9074 12.169C27.5409 12.169 26.8392 10.9688 26.8392 9.45455C26.8392 7.95881 27.5225 6.79545 28.9074 6.79545C30.2369 6.79545 30.9387 7.86648 30.9387 9.45455C30.9387 11.0611 30.2185 12.169 28.9074 12.169ZM37.1663 13.1293C39.0544 13.1293 40.3701 12.0259 40.3794 10.4886C40.3701 9.29297 39.5715 8.27734 38.5512 8.08807V8.03267C39.4376 7.80185 40.0193 6.93395 40.0285 5.92756C40.0193 4.48722 38.8097 3.41619 37.1663 3.41619C35.5044 3.41619 34.2948 4.48722 34.3041 5.92756C34.2948 6.93395 34.8765 7.80185 35.7813 8.03267V8.08807C34.7426 8.27734 33.944 9.29297 33.9532 10.4886C33.944 12.0259 35.2597 13.1293 37.1663 13.1293ZM37.1663 12.1136C35.8691 12.1136 35.0704 11.4489 35.0796 10.4332C35.0704 9.36683 35.9521 8.60511 37.1663 8.60511C38.3619 8.60511 39.2437 9.36683 39.2529 10.4332C39.2437 11.4489 38.445 12.1136 37.1663 12.1136ZM37.1663 7.62642C36.1322 7.62642 35.4028 6.98011 35.412 6.00142C35.4028 5.04119 36.1045 4.41335 37.1663 4.41335C38.2096 4.41335 38.9113 5.04119 38.9205 6.00142C38.9113 6.98011 38.1819 7.62642 37.1663 7.62642ZM45.3432 13.1293C47.176 13.1293 48.5378 11.9798 48.5378 10.4332C48.5378 9.23295 47.8269 8.36044 46.6358 8.16193V8.08807C47.5914 7.79723 48.187 7.01243 48.187 5.94602C48.187 4.60724 47.1298 3.41619 45.3801 3.41619C43.7459 3.41619 42.3887 4.42258 42.3333 5.90909H43.4412C43.4828 4.96733 44.3784 4.41335 45.3617 4.41335C46.405 4.41335 47.079 5.04581 47.079 6.00142C47.079 6.99858 46.2988 7.64489 45.177 7.64489H44.4199V8.66051H45.177C46.6127 8.66051 47.4114 9.38991 47.4114 10.4332C47.4114 11.435 46.5389 12.1136 45.3248 12.1136C44.2306 12.1136 43.3627 11.5504 43.2935 10.6364H42.1301C42.1994 12.1229 43.5105 13.1293 45.3432 13.1293ZM50.2044 11.0611H54.6547V13H55.7441V11.0611H57.0368V10.0455H55.7441V3.54545H54.3592L50.2044 10.1193V11.0611ZM54.6547 10.0455H51.4416V9.97159L54.5808 5.00426H54.6547V10.0455ZM61.9614 13.1293C63.7941 13.1293 65.156 11.9798 65.156 10.4332C65.156 9.23295 64.445 8.36044 63.254 8.16193V8.08807C64.2096 7.79723 64.8051 7.01243 64.8051 5.94602C64.8051 4.60724 63.748 3.41619 61.9983 3.41619C60.3641 3.41619 59.0068 4.42258 58.9514 5.90909H60.0594C60.1009 4.96733 60.9965 4.41335 61.9798 4.41335C63.0232 4.41335 63.6972 5.04581 63.6972 6.00142C63.6972 6.99858 62.917 7.64489 61.7952 7.64489H61.0381V8.66051H61.7952C63.2309 8.66051 64.0296 9.38991 64.0296 10.4332C64.0296 11.435 63.157 12.1136 61.9429 12.1136C60.8488 12.1136 59.9809 11.5504 59.9117 10.6364H58.7483C58.8176 12.1229 60.1286 13.1293 61.9614 13.1293ZM70.0725 13.1293C71.9607 13.1293 73.2764 12.0259 73.2856 10.4886C73.2764 9.29297 72.4777 8.27734 71.4575 8.08807V8.03267C72.3438 7.80185 72.9255 6.93395 72.9347 5.92756C72.9255 4.48722 71.716 3.41619 70.0725 3.41619C68.4106 3.41619 67.2011 4.48722 67.2103 5.92756C67.2011 6.93395 67.7828 7.80185 68.6876 8.03267V8.08807C67.6489 8.27734 66.8502 9.29297 66.8595 10.4886C66.8502 12.0259 68.1659 13.1293 70.0725 13.1293ZM70.0725 12.1136C68.7753 12.1136 67.9767 11.4489 67.9859 10.4332C67.9767 9.36683 68.8584 8.60511 70.0725 8.60511C71.2682 8.60511 72.1499 9.36683 72.1592 10.4332C72.1499 11.4489 71.3513 12.1136 70.0725 12.1136ZM70.0725 7.62642C69.0384 7.62642 68.309 6.98011 68.3183 6.00142C68.309 5.04119 69.0107 4.41335 70.0725 4.41335C71.1159 4.41335 71.8176 5.04119 71.8268 6.00142C71.8176 6.98011 71.0882 7.62642 70.0725 7.62642ZM75.3503 13H76.5506L80.7608 4.61648V3.54545H74.704V4.56108H79.579V4.63494L75.3503 13ZM85.4604 13.1293C87.2931 13.1293 88.655 11.9798 88.655 10.4332C88.655 9.23295 87.9441 8.36044 86.753 8.16193V8.08807C87.7086 7.79723 88.3042 7.01243 88.3042 5.94602C88.3042 4.60724 87.247 3.41619 85.4973 3.41619C83.8631 3.41619 82.5059 4.42258 82.4505 5.90909H83.5584C83.6 4.96733 84.4956 4.41335 85.4789 4.41335C86.5222 4.41335 87.1962 5.04581 87.1962 6.00142C87.1962 6.99858 86.416 7.64489 85.2942 7.64489H84.5371V8.66051H85.2942C86.7299 8.66051 87.5286 9.38991 87.5286 10.4332C87.5286 11.435 86.6561 12.1136 85.4419 12.1136C84.3478 12.1136 83.4799 11.5504 83.4107 10.6364H82.2473C82.3166 12.1229 83.6277 13.1293 85.4604 13.1293ZM93.867 3.54545H92.7221L90.3585 5.11506V6.27841L92.6667 4.74574H92.7221V13H93.867V3.54545Z" fill="#1455FF"/>
<path d="M7.82102 12.2674H8.69367C8.69367 12.2674 8.9572 12.2383 9.09196 12.0934C9.2158 11.9601 9.21187 11.71 9.21187 11.71C9.21187 11.71 9.19478 10.5391 9.73816 10.3667C10.274 10.1967 10.9619 11.4983 11.691 11.9989C12.2424 12.3775 12.6614 12.2946 12.6614 12.2946L14.6112 12.2674C14.6112 12.2674 15.6311 12.2044 15.1474 11.4025C15.1078 11.3371 14.8657 10.8094 13.6977 9.7252C12.475 8.59048 12.639 8.77406 14.1116 6.81123C15.0085 5.61588 15.367 4.88615 15.2549 4.57363C15.1482 4.27587 14.4885 4.35452 14.4885 4.35452L12.2933 4.3681C12.2933 4.3681 12.1304 4.34592 12.0098 4.4181C11.8918 4.4887 11.8161 4.65363 11.8161 4.65363C11.8161 4.65363 11.4685 5.57857 11.0053 6.36529C10.0278 8.02515 9.63685 8.11301 9.47705 8.00979C9.10529 7.76954 9.19818 7.04485 9.19818 6.52987C9.19818 4.92121 9.44218 4.25052 8.72305 4.07687C8.48445 4.0193 8.30869 3.98121 7.69838 3.97498C6.91505 3.96703 6.2522 3.97738 5.8768 4.1613C5.62705 4.28361 5.43436 4.5561 5.55178 4.57179C5.69689 4.5911 6.0254 4.66046 6.1996 4.89746C6.42462 5.20359 6.41676 5.89086 6.41676 5.89086C6.41676 5.89086 6.54605 7.7845 6.11487 8.01966C5.819 8.18099 5.41305 7.85163 4.54154 6.34571C4.09507 5.57433 3.75787 4.72159 3.75787 4.72159C3.75787 4.72159 3.69294 4.56226 3.57696 4.47697C3.43629 4.37363 3.23974 4.34088 3.23974 4.34088L1.1536 4.3545C1.1536 4.3545 0.840492 4.36325 0.725447 4.49941C0.623092 4.62063 0.717269 4.87108 0.717269 4.87108C0.717269 4.87108 2.35038 8.69204 4.19974 10.6176C5.89562 12.3833 7.82102 12.2674 7.82102 12.2674Z" fill="#1455FF"/>
</svg>
