<svg width="46" height="36" viewBox="0 0 46 36" fill="none" xmlns="http://www.w3.org/2000/svg">
<path fill-rule="evenodd" clip-rule="evenodd" d="M2.12308 10.5882L2.12308 25.4118H0L6.49618e-07 10.5882H2.12308Z" fill="white"/>
<path fill-rule="evenodd" clip-rule="evenodd" d="M8.72849 26.3076C9.78215 28.4679 10.8323 28.9412 11.3231 28.9412C11.8138 28.9412 12.864 28.4679 13.9177 26.3076C14.9012 24.291 15.5692 21.3565 15.5692 18C15.5692 14.6435 14.9012 11.709 13.9177 9.69241C12.864 7.5321 11.8138 7.05882 11.3231 7.05882C10.8323 7.05882 9.78215 7.5321 8.7285 9.69241C7.74496 11.709 7.07692 14.6435 7.07692 18C7.07692 21.3565 7.74496 24.291 8.72849 26.3076ZM4.95385 18C4.95385 25.2122 7.80545 31.0588 11.3231 31.0588C14.8407 31.0588 17.6923 25.2122 17.6923 18C17.6923 10.7878 14.8407 4.94118 11.3231 4.94118C7.80545 4.94118 4.95385 10.7878 4.95385 18Z" fill="white"/>
<path fill-rule="evenodd" clip-rule="evenodd" d="M40.5345 29.5067C42.5582 26.6471 43.8769 22.5855 43.8769 18C43.8769 13.4145 42.5582 9.35288 40.5345 6.49329C38.5069 3.62814 35.9043 2.11765 33.2615 2.11765C30.6188 2.11765 28.0162 3.62814 25.9886 6.49329C23.9649 9.35288 22.6462 13.4145 22.6462 18C22.6462 22.5855 23.9649 26.6471 25.9886 29.5067C28.0162 32.3719 30.6188 33.8824 33.2615 33.8824C35.9043 33.8824 38.5069 32.3719 40.5345 29.5067ZM33.2615 36C40.2968 36 46 27.9411 46 18C46 8.05887 40.2968 0 33.2615 0C26.2263 0 20.5231 8.05887 20.5231 18C20.5231 27.9411 26.2263 36 33.2615 36Z" fill="white"/>
</svg>
